<svg xmlns="http://www.w3.org/2000/svg" width="120" height="120" viewBox="0 0 120 120">
  <defs>
    <linearGradient id="logo-a" x1="56.666%" x2="82.057%" y1="22.341%" y2="43.286%">
      <stop offset="0%" stop-color="#4285EB"/>
      <stop offset="100%" stop-color="#2EC7FF"/>
    </linearGradient>
    <linearGradient id="logo-b" x1="60.821%" x2="52.227%" y1="22.341%" y2="82.337%">
      <stop offset="0%" stop-color="#29CDFF"/>
      <stop offset="37.86%" stop-color="#148EFF"/>
      <stop offset="100%" stop-color="#0A60FF"/>
    </linearGradient>
    <linearGradient id="logo-c" x1="57.923%" x2="36.61%" y1="24.551%" y2="77.234%">
      <stop offset="0%" stop-color="#FA816E"/>
      <stop offset="41.473%" stop-color="#F74A5C"/>
      <stop offset="100%" stop-color="#F51D2C"/>
    </linearGradient>
    <linearGradient id="logo-d" x1="68.051%" x2="30.523%" y1="-35.691%" y2="114.943%">
      <stop offset="0%" stop-color="#FA8E7D"/>
      <stop offset="51.264%" stop-color="#F74A5C"/>
      <stop offset="100%" stop-color="#F51D2C"/>
    </linearGradient>
  </defs>
  <g fill="none" fill-rule="evenodd" transform="translate(-90 -60)">
    <g fill-rule="nonzero" transform="translate(90 60)">
      <path fill="url(#logo-a)" d="M54.8594992,2.50591694 L2.50371877,54.9076636 C-0.311015119,57.7248688 -0.311015119,62.2751312 2.50371877,65.0923364 L54.8594992,117.494083 C57.6742331,120.311288 62.2205041,120.311288 65.0352379,117.494083 L86.9872687,95.5227793 C89.5080684,92.9997664 89.5080684,88.9091543 86.9872687,86.3861415 C84.4664691,83.8631287 80.3794453,83.8631287 77.8586456,86.3861415 L61.2169868,103.042411 C60.516404,103.743609 59.4531271,103.743609 58.7525443,103.042411 L16.9427139,61.1958733 C16.2421312,60.4946754 16.2421312,59.430465 16.9427139,58.7292671 L58.7525443,16.8827294 C59.4531271,16.1815315 60.516404,16.1815315 61.2169868,16.8827294 L77.8586456,33.5389989 C80.3794453,36.0620116 84.4664691,36.0620116 86.9872687,33.5389989 C89.5080684,31.015986 89.5080684,26.9253739 86.9872687,24.4023611 L65.0376574,2.43344755 C62.2113665,-0.322792107 57.6634331,-0.300478744 54.8594992,2.50591694 Z"/>
      <path fill="url(#logo-b)" d="M54.8594992,2.50591694 L2.50371877,54.9076636 C-0.311015119,57.7248688 -0.311015119,62.2751312 2.50371877,65.0923364 L54.8594992,117.494083 C57.6742331,120.311288 62.2205041,120.311288 65.0352379,117.494083 L86.9872687,95.5227793 C89.5080684,92.9997664 89.5080684,88.9091543 86.9872687,86.3861415 C84.4664691,83.8631287 80.3794453,83.8631287 77.8586456,86.3861415 L61.2169868,103.042411 C60.516404,103.743609 59.4531271,103.743609 58.7525443,103.042411 L16.9427139,61.1958733 C16.2421312,60.4946754 16.2421312,59.430465 16.9427139,58.7292671 L58.7525443,16.8827294 C60.4969725,15.3763101 63.3431964,12.3250944 67.5228897,11.6114692 C70.629164,11.0811157 74.0251654,12.2484143 77.7108941,15.1133655 C75.2467531,12.6470575 71.0223409,8.42041824 65.0376574,2.43344755 C62.2113665,-0.322792107 57.6634331,-0.300478744 54.8594992,2.50591694 Z"/>
      <path fill="url(#logo-c)" d="M92.054733,81.5127472 C94.5755327,84.03576 98.6625565,84.03576 101.183356,81.5127472 L117.376251,65.3056355 C120.190985,62.4884304 120.190985,57.9381679 117.376581,55.1212916 L101.042526,38.8308695 C98.5157578,36.3108515 94.4274367,36.3144855 91.9051451,38.8389915 C89.3843454,41.3620044 89.3843454,45.4526164 91.9051451,47.9756293 L102.937256,59.0174259 C103.637839,59.7186238 103.637839,60.7828342 102.937256,61.4840321 L92.054733,72.3761094 C89.5339334,74.8991223 89.5339334,78.9897344 92.054733,81.5127472 Z"/>
      <ellipse cx="60.209" cy="60.262" fill="url(#logo-d)" rx="14.136" ry="14.148"/>
    </g>
  </g>
</svg>
